Patient4_TMGait_0pt7_01_right_25_EMG.mot
version=1
nRows=34
nColumns=33
inDegrees=no
endheader
time	1LAddLong	2LGlutMax	3LGlutMed	4LIliopsoas	5LSemiMemb	6LBicFemLong	7LRecFem	8LVastMed	9LVastLat	10LGasMed	11LTibAnt	12lTibPost	13LPeroneusLong	14LSol	15LExtDigLong	16LFlexDigLong	17RAddLong	18RGlutMax	19RGlutMed	20RIliopsoas	21RSemiMemb	22RBicFemLong	23RRecFem	24RVastMed	25RVastLat	26RGasMed	27RTibAnt	28RTibPost	29RPeroneusLong	30RSol	31RExtDigLong	32RFlexDigLong
28.625	-0.013275	0.12375	-0.067444	0.006256	0.023041	-0.015411	0.38376	0.007782	0.034027	-0.03067	-0.039825	0.011444	-0.11047	0.15305	0.16251	-0.010834	0.112	0.10529	-0.73456	0.090332	-0.44327	0.24735	0.19501	-0.13473	-0.072021	-0.00061	-0.010071	-0.00885	0.79987	-0.10864	-0.002441	-0.018921
28.626	-0.012512	0.052338	-0.035706	0.030975	0.015106	0.015259	0.22064	0.008698	0.019073	-0.055237	-0.06424	0.006409	-0.12268	0.15411	0.005188	0.002747	0.11017	0.058899	-0.34409	0.038147	-1.001	0.28732	0.10773	-0.29831	-0.49286	-0.02121	-0.059052	-0.013123	0.867	-0.17395	-0.001221	-0.02655
28.627	-0.010681	0.020752	-0.009613	0.029449	0.023956	0.02182	0.23239	0.009613	0.002441	-0.06073	-0.045624	0.005798	-0.12421	0.18036	0.019379	0	0.036011	0.11017	-0.58838	0.092468	-0.49652	0.35049	0.25101	-0.26962	-0.47119	-0.09964	0	-0.029755	-0.10971	-0.16739	-0.002441	-0.018768
28.628	-0.008698	-0.010223	0.037384	-0.005341	0.019073	0.011292	0.23239	0.009155	0.006409	-0.077667	0.16998	0.005951	-0.087585	0.18295	0.14511	0.006104	-0.078888	0.26474	-0.86899	0.046082	-0.13306	0.33875	0.25772	-0.11078	-0.18845	-0.081329	0.052185	-0.027771	-0.28976	0.003052	-0.005493	-0.014954
28.629	-0.00412	-0.11414	0.07309	-0.016022	0.023193	0.009613	0.16647	0.00061	-0.001221	-0.078735	0.27054	0.008087	-0.11017	0.16754	0.12528	0.001068	-0.12726	0.35233	-0.75256	-0.020599	0.43488	0.19882	0.061493	0.090027	0.014343	0.000763	0.037537	-0.030365	-0.42191	0.074463	-0.001068	-0.014954
28.63	-0.006866	-0.14572	0.15839	-0.016327	0.020294	0.007782	0.16083	0.009766	-0.022278	-0.079041	0.31967	0.007935	-0.097809	0.15823	0.56503	0.005035	-0.1004	0.43259	-0.33295	-0.036163	0.77911	-0.19302	0.12665	0.17288	0.01236	0.027618	0.081329	-0.039978	-0.14221	0.11475	0.001221	-0.015869
28.631	-0.00061	-0.19684	0.13092	0.018921	0.016632	0.019836	0.14008	0.011597	-0.043793	-0.083313	0.37796	0.005035	-0.1384	0.16159	-0.12024	0.001068	-0.070953	0.51025	-1.0329	0.02655	0.61752	-0.52292	0.35553	0.27069	-0.017395	0.002289	0.00824	-0.055084	0.54077	0.14847	-0.003662	-0.01297
28.632	0.005188	-0.27924	0.028534	0.014343	0.014648	0.008698	0.18997	0.016327	-0.049133	-0.075073	0.31738	0.001068	-0.11749	0.21439	0.028534	-0.01709	-0.031281	0.40024	-1.3452	0.10605	0.28427	-0.54291	0.4393	0.1442	-0.024872	-0.011292	-0.022583	-0.055847	-0.050964	0.21454	-0.002899	-0.003815
28.633	0.00473	-0.3305	0.034027	0.005035	0.020447	-0.002136	0.15213	0.019226	-0.051117	-0.083313	0.35614	0.002289	-0.12573	0.25909	-0.58914	0.00885	0.021362	0.38254	-1.3437	0.025787	0.044708	-0.37705	0.54245	0.25497	-0.022125	-0.041351	-0.040283	-0.039215	-0.12146	0.16403	-0.001831	-0.009918
28.634	-0.002747	-0.3595	0.10483	-0.015869	0.015259	0.007782	0.14954	0.027466	-0.064087	-0.082092	-0.089569	0.003662	-0.076141	0.2327	-0.1738	0.00351	0.027466	0.41458	-1.1655	-0.049438	0.060425	0.027466	0.62241	1.1868	-0.080719	-0.12878	-0.041199	-0.037384	-0.010986	-0.043182	-0.006714	-0.010223
28.635	-0.005951	-0.35629	0.13779	-0.007324	0.020752	-0.022888	0.070038	0.024719	-0.066376	-0.087585	-0.22553	-0.000153	-0.046082	0.19501	-0.19165	0.012817	-0.02243	0.37308	-0.88242	-0.13916	-0.11383	0.64621	0.77225	1.1557	-0.079498	-0.025482	0.014343	0.025024	-0.023193	-0.005646	-0.002747	-0.015564
28.636	-0.006866	-0.33081	0.13336	-0.016479	0.016479	0.012512	-0.019531	0.0354	-0.064087	-0.058899	-0.063934	-0.000916	0.010529	0.059662	-0.34088	0.00824	-0.096283	0.29541	-0.4892	-0.081635	-0.4985	1.2669	0.8078	0.61096	-0.036163	0.036621	0.073547	-0.031891	0.054169	0.19089	-0.001678	-0.012817
28.637	-0.004578	-0.33173	0.15198	-0.010834	0.02121	0.012054	-0.059509	0.03952	-0.041656	-0.061646	-0.27756	0.005951	0.04837	0.009766	-0.11337	0.010529	-0.1088	0.15427	-0.4866	-0.001678	-0.52429	1.1331	0.70496	0.18066	0.039978	-0.029449	0.089417	-0.24124	0.033875	0.1236	-0.001068	-0.015869
28.638	-0.008698	-0.3595	0.20416	0.002747	0.015106	0.028229	0.060883	0.030365	-0.069122	-0.042572	-0.2124	0.014343	-0.028992	0.04425	0.00351	0.011444	-0.046387	-0.083313	-1.8971	0.08194	-0.21576	0.60654	0.62851	-0.32135	0.016632	0.028687	0.078888	-0.17273	0.31845	-0.12573	-0.001678	-0.026703
28.639	-0.006256	-0.41	0.19714	0.014343	0.014038	0.006714	0.11429	0.024414	-0.083008	-0.032959	-0.17364	-0.020752	-0.041046	0.04425	-0.22217	-0.002136	-0.032043	-0.40497	-3.5376	0.1506	0.19623	0.3479	0.68665	-0.55603	-0.028839	0.053253	0.052643	0.070038	0.4512	-0.3801	0.00061	-0.020599
28.64	-0.009003	-0.44434	0.22064	0.001831	0.027924	-0.001221	-0.015106	0.013275	-0.11307	-0.007324	-0.15717	0.001831	-0.041504	0.006104	-0.17929	0.003662	-0.036774	-0.60089	-2.6222	0.084686	0.21698	0.13565	0.75424	-0.38696	-0.053864	0.04364	0.083313	0.23956	0.20172	-0.24429	0.000763	-0.024261
28.641	-0.008545	-0.54336	0.21774	0.025177	0.021057	-0.016022	0.036774	0.004883	-0.084839	-0.005798	-0.17319	0.002136	-0.075378	-0.026855	-0.30945	0.00824	-0.009766	-0.67505	-0.97137	0.080261	0.022278	0.14984	0.75089	-0.24246	-0.074615	0.051727	0.2121	0.093536	-0.068359	-0.11353	0.012817	-0.022278
28.642	-0.003052	-0.62134	0.20386	0.040131	0.025482	-0.016937	0.032196	0.00351	-0.089722	0.003815	-0.21744	0	-0.055847	-0.061646	0.000763	0.018005	-0.000458	-0.82047	-1.5413	-0.052185	-0.23773	0.18539	0.62241	-0.048218	-0.14313	0.027161	0.23758	-0.005798	-0.47653	0.011292	-0.00061	-0.021362
28.643	-0.002136	-0.68283	0.17288	0.020752	0.018616	-0.012665	0.001068	0.011292	-0.081787	-0.009155	-0.13748	-0.000305	-0.050354	-0.042267	0.10056	0.012512	0.006256	-0.82779	-1.8965	-0.07782	-0.024414	0.027313	0.46448	-0.012665	-0.22522	-0.005035	0.17044	0.025787	-0.36591	-0.00061	-0.000305	-0.023346
28.644	-0.000916	-0.73166	0.17273	0.000305	0.040131	0.000305	-0.00351	-0.00061	-0.069733	-0.015564	-0.15656	0.000763	-0.052185	0	0.18814	0.017395	-0.005188	-0.7074	-0.72342	-0.026855	-0.25284	-0.15198	0.26657	-0.011139	-0.23697	-0.001221	0.08194	0.008698	0.19272	0.053558	0.000153	-0.016785
28.645	-0.005493	-0.70648	0.20966	0.002289	0.034332	-0.011749	-0.011902	0.001831	-0.062408	-0.011902	-0.1593	0.004272	-0.037537	0.041046	0.40039	0.016174	0.017853	-0.57632	-0.18295	0.037842	-0.39352	-0.47852	0.19424	-0.075378	-0.11002	0.019836	-0.04425	-0.016174	-0.34775	-0.12344	-0.003357	-0.01358
28.646	-0.001526	-0.66513	0.20706	0.038452	0.029297	-0.007019	-0.021362	-0.005035	-0.048981	-0.021667	-0.029907	-0.009003	-0.014191	0.036316	-0.075684	0.006104	0.069275	-0.64865	-0.70908	0.05127	-0.32852	-0.55832	0.18707	-0.26474	0.02121	0.035858	-0.10437	-0.016327	0.62317	-0.16281	0.000458	-0.010376
28.647	-0.00885	-0.56519	0.2063	0.015717	0.017395	-0.001678	0.023956	-0.010986	-0.058289	0.00351	0.10574	0.000305	-0.088501	0.067139	0.13336	0.002136	0.15656	-0.69199	-0.47195	-0.076294	-0.45273	-0.54123	0.13275	-0.2005	0.1947	0.029297	-0.007019	0.061188	1.3866	-0.18662	-0.000763	-0.012817
28.648	-0.010986	-0.43793	0.21347	-0.007935	0.020142	-0.000916	0.159	-0.005035	-0.12024	0.020752	0.11688	-0.000916	-0.12314	0.075531	0.46722	0.006561	0.15579	-0.71182	-0.36011	-0.14999	-0.51727	-0.33142	0.10742	0.070648	0.21622	-0.004578	0.089569	-0.00351	0.77789	-0.17838	0.001221	-0.006409
28.649	-0.009003	-0.30838	0.20599	-0.00351	0.02121	-0.005493	0.19104	-0.002594	-0.11658	0.037689	0.063324	0.002594	-0.12512	0.088806	0.65201	-0.001068	-0.054169	-0.65079	-0.10101	-0.071106	-0.63782	-0.23743	0.011597	0.35889	0.14587	-0.016785	0.034943	-0.020752	0.89386	-0.19196	0.002289	-0.010529
28.65	-0.000458	-0.14328	0.1886	-0.009918	0.018005	-0.007629	0.19806	0.00885	-0.10971	0.025635	-0.009003	-0.000305	-0.078125	0.094147	-0.028687	-0.004272	-0.16983	-0.52506	-0.16205	0.027008	-0.6807	-0.18601	-0.040741	0.46677	0.1088	-0.075989	0.069122	-0.034332	0.000153	-0.06424	-0.002441	-0.016479
28.651	-0.001831	0.020599	0.18265	-0.002594	0.023499	-0.0177	0.25925	-0.003815	-0.13153	0.014343	-0.020599	-0.012207	-0.033875	0.11307	-0.51712	-0.004425	-0.14191	-0.80887	-0.77927	0.068665	-0.17746	0.007477	0.050354	0.37155	0.05722	-0.065613	0.11627	-0.036926	-0.016174	0.085754	0.000153	-0.015106
28.652	-0.010986	0.15427	0.19119	-0.008392	0.019836	-0.028076	0.26199	-0.007935	-0.12222	-0.000305	-0.005341	0.001221	0.009613	0.14862	-0.45227	-0.000916	-0.112	-1.0036	-1.5395	0.10269	0.070343	0.40649	0.15381	0.15778	-0.029602	-0.020447	0.26443	-0.031586	0.19684	0.1001	-0.000916	-0.013123
28.653	-0.007782	0.29251	0.19577	-0.001678	0.02182	-0.028839	0.28061	-0.007019	-0.12436	0.023041	0.057068	0.005035	-0.007782	0.098114	-0.18219	-0.001526	-0.057373	-1.1635	-1.4647	0.21088	0.39536	0.25696	0.16983	0.030975	-0.029297	-0.0177	0.21851	-0.036621	0.43182	0.0354	-0.001678	-0.01358
28.654	-0.021057	0.44128	0.18677	0.015106	0.023499	-0.033875	0.33691	-0.001526	-0.13657	0.014496	-0.003052	-0.005341	0.014954	0.13886	-0.34286	0.005646	-0.001221	-1.0933	-0.62332	0.08194	0.24948	0.34088	0.15884	0.097351	-0.010223	0.001373	-0.094147	-0.03006	1.5857	-0.084686	-0.000916	-0.003967
28.655	-0.026398	0.54382	0.17532	0.048676	0.020447	-0.02655	0.39688	0.004883	-0.14374	0.041656	-0.10529	0.008087	-0.059357	0.18127	0.32852	0.006409	0.002441	-1.0197	0.077515	-0.009308	0.071716	0.29663	-0.050354	0.14511	0.43549	-0.012817	0.06546	-0.018768	-0.41428	-0.17227	-0.001373	-0.011444
28.656	-0.018311	0.62027	0.15472	0.024261	0.020447	-0.033722	0.51956	0.012817	-0.12146	0.045776	-0.16785	-0.00351	-0.063324	0.15167	0.38528	0.001373	-0.00412	-1.0025	0.06012	-0.071259	0.012054	-0.066376	-0.04303	0.17364	0.53665	0.002289	0.13519	0.043945	-1.6586	-0.18555	-0.000763	-0.011597
28.657	-0.021667	0.7106	0.1593	-0.013123	0.017548	-0.039215	0.58655	0.010223	-0.11765	-0.014191	-0.13062	-0.000305	0.009308	0.17288	0.27359	0.00061	0.016174	-1.0544	-0.72128	-0.14648	-0.006256	-0.1651	-0.015717	0.17151	0.28381	0.059814	0.16769	-0.059357	-1.3722	-0.011902	-0.00061	-0.014343
28.658	-0.020905	0.8081	0.15961	-0.025787	0.021515	-0.063629	0.62164	0.000153	-0.1294	0.035248	-0.055695	0.002441	-0.061035	0.22827	0.081024	-0.004578	0.059357	-1.1989	-0.75028	-0.082703	0.18677	-0.059204	0.024261	0.084076	-0.081635	0.10315	-0.032196	0.053864	0.003204	0.079803	0.000763	-0.015259
